<svg width="64" height="24" fill="none" xmlns="http://www.w3.org/2000/svg"><path d="M12.14 2.911h3.912c1.074 0 2.434.244 2.434 1.978 0 1.735-1.944 2.442-3.387 2.442h-2.96v-4.42zm0 6.777h2.229c3.664 0 5.53.762 5.53 2.801 0 1.807-1.497 2.57-3.847 2.57h-3.566l-4.078 2.717 7.617-.001c4.562 0 7.632-1.563 7.632-5.177 0-3.153-2.717-4.391-5.143-4.391 1.676 0 3.657-1.43 3.657-3.852 0-2.42-2.329-4.16-4.985-4.16H7.725l.683 1.44V16.51l3.732-2.486V9.688zM29.8 2.911h2.542c1.049 0 6.398.253 6.398 6.074 0 6.643-6.398 6.073-6.398 6.073l-2.195.002-4.08 2.716h7.324c4.562 0 9.238-2.668 9.238-8.79 0-5.43-4.084-8.792-9.238-8.792h-8.006l.682 1.44v14.877l3.733-2.486V2.91zm18.443 6.074c0-4.972 3.601-6.369 5.934-6.369 2.332 0 5.935 1.397 5.935 6.369 0 4.971-3.603 6.368-5.935 6.368-2.333 0-5.934-1.397-5.934-6.368zm-3.89 0c0 7.014 5.962 8.986 9.824 8.986S64 15.999 64 8.985C64 1.97 58.039 0 54.177 0s-9.824 1.97-9.824 8.985zM0 .195v21.917l3.647-2.43V.196H0zm4.328 20.298L0 23.373h63.796v-2.88H4.328z" fill="#B1B1B1"/></svg>