<svg width="66" height="62" fill="none" xmlns="http://www.w3.org/2000/svg"><path d="M33 61.706c-18.18 0-33-13.855-33-30.853C0 13.856 14.82 0 33 0s33 13.856 33 30.853c0 16.998-14.82 30.853-33 30.853zm0-60.095c-17.232 0-31.277 13.13-31.277 29.242 0 16.112 14.045 29.242 31.277 29.242s31.277-13.13 31.277-29.242C64.277 14.742 50.232 1.611 33 1.611z" fill="#C99D66"/><path d="M27.141 13.09h10.77v9.95h-10.77v-9.95zm-1.55-.684v11.359c0 .402.344.724.774.724h12.279c.43 0 .775-.322.775-.724v-11.36c0-.402-.345-.724-.775-.724H26.366c-.431 0-.776.322-.776.725zm28.432 31.658h-10.77v-6.283h10.77v6.283zm-16.155 0H27.141v-6.283h10.77v6.283h-.043zm-16.112 0h-10.77v-6.283h10.77v6.283zm33.043-7.733h-5.385v-7.29c0-.403-.345-.725-.776-.725h-15.38V26.18h-1.55v2.135H16.37c-.431 0-.776.322-.776.725v7.29H10.21c-.43 0-.775.322-.775.725v7.733c0 .403.344.725.775.725h12.278c.431 0 .776-.322.776-.725v-7.733c0-.403-.345-.725-.776-.725h-5.342v-6.565h14.605v6.565h-5.385c-.431 0-.776.322-.776.725v7.733c0 .403.345.725.776.725h12.278c.43 0 .775-.322.775-.725v-7.733c0-.403-.345-.725-.775-.725h-5.386v-6.565h14.605v6.565h-5.385c-.431 0-.776.322-.776.725v7.733c0 .403.345.725.776.725h12.278c.43 0 .775-.322.775-.725v-7.733c.043-.403-.301-.725-.732-.725z" fill="#C99D66"/></svg>