<svg width="61" height="40" fill="none" xmlns="http://www.w3.org/2000/svg"><path d="M57.855 16.593l2.918-3.542a.885.885 0 00.19-.693L59.597.77a.911.911 0 00-.606-.77c-.34-.116-.682 0-.947.23l-6.138 6.815L40.654 8.2c-.492.039-.833.5-.795 1.001.038.5.492.847.985.808l11.593-1.193c.228-.038.417-.115.569-.308l5.077-5.62 1.099 9.239-2.615 3.118-5.266 3.62c-.265.192-.417.5-.38.808l.418 6.12c.038.463.379.81.795.848l3.751.346 1.933 4.967-.872 2.31-2.538-3.465a.847.847 0 00-.872-.347l-3.902.655c-.303.038-.569.27-.682.577l-1.25 3.465-12.011 2.464c-.038 0-.114.038-.152.038l-1.97.424-7.085-7.507c-.227-.231-.568-.347-.871-.27l-5.115 1.31-2.312-2.888a.98.98 0 00-.606-.347l-8.562-.847c-.266-.038-.493.077-.682.231a.887.887 0 00-.303.655v1.925l-3.41 3.542-1.061-4.89 1.44-3.85a.98.98 0 00-.038-.731.9.9 0 00-.53-.462l-2.464-.809 2.994-12.473 5.683-3.542 4.812 2.272c.454.192.985 0 1.174-.424a.895.895 0 00-.417-1.193L10.95 5.313c-.265-.116-.606-.116-.834.038L3.713 9.278a.958.958 0 00-.417.578L.038 23.523A.91.91 0 00.644 24.6l2.387.808-1.212 3.195c-.076.154-.076.347-.038.54l1.553 6.852a.866.866 0 00.644.654c.304.078.645 0 .872-.23l4.812-4.967a.915.915 0 00.265-.616v-1.27l7.123.616 2.425 3.041a.91.91 0 00.91.308l5.152-1.309 7.047 7.469a.88.88 0 00.644.27h.19l3.447-.694c.038 0 .076-.038.152-.038l11.518-2.348c.303-.078.568-.27.644-.578l1.25-3.426 2.842-.462 3.183 4.35c.19.27.53.385.833.346a.925.925 0 00.72-.577l1.591-4.158a.969.969 0 000-.654l-2.235-5.814a.925.925 0 00-.758-.577l-3.523-.347-.341-4.812 4.925-3.388c.076-.077.152-.115.19-.192z" fill="#C99D66"/><path d="M19.36 24.447a.93.93 0 00.91-.924v-4.505c3.789.077 5.797.54 7.88 1.078 2.274.54 4.585 1.117 9.208 1.117a.93.93 0 00.91-.924V6.66a.93.93 0 00-.91-.924c-4.395 0-6.517-.539-8.79-1.078-2.122-.5-4.282-1.04-8.298-1.116V2.54a.93.93 0 00-.91-.924.93.93 0 00-.908.924v21.02c0 .5.416.886.909.886zm.91-19.057c3.789.077 5.797.539 7.88 1.078 2.123.5 4.282 1.04 8.299 1.116v2.772c-3.79-.077-5.797-.539-7.881-1.078-2.122-.5-4.282-1.04-8.298-1.116V5.39zm0 9.047c3.789.077 5.797.539 7.88 1.078.304.077.607.154.872.23.076 0 .152.04.19.04.417 0 .758-.27.871-.694a.89.89 0 00-.682-1.077c-.303-.077-.568-.154-.871-.193-2.122-.5-4.282-1.04-8.298-1.117v-2.656c3.79.077 5.797.54 7.881 1.078 2.122.5 4.281 1.04 8.298 1.117v2.656c-1.137-.039-2.16-.077-3.145-.192-.493-.039-.947.307-.985.808-.038.5.303.962.795 1 1.023.116 2.122.155 3.335.193v2.772c-3.79-.077-5.797-.539-7.881-1.078-2.122-.5-4.282-1.04-8.298-1.116v-2.849h.038z" fill="#C99D66"/></svg>