<svg width="57" height="57" fill="none" xmlns="http://www.w3.org/2000/svg"><path d="M53.415 6.685l-3.13-3.116 1.313-1.307 3.13 3.116-1.313 1.307zm-3.887 3.82l-3.332.352.202-3.468 2.474-2.463 3.13 3.116-2.474 2.463zM27.516 28.098a7.03 7.03 0 00-4.847-1.558c-1.767.1-3.383.904-4.595 2.161-1.211 1.257-1.868 2.966-1.868 4.675 0 1.759.657 3.418 1.868 4.724 1.212 1.257 2.828 2.061 4.595 2.162 1.767.1 3.483-.402 4.846-1.508 1.364-1.106 2.272-2.664 2.474-4.373.253-1.709-.202-3.468-1.211-4.926l4.745-4.725c2.272 2.664 3.383 6.132 3.13 9.651-.252 3.468-1.867 6.735-4.442 9.098-2.625 2.362-6.059 3.569-9.542 3.468a13.461 13.461 0 01-9.29-4.122 13.54 13.54 0 01-3.786-9.4c0-3.518 1.363-6.885 3.837-9.398 2.423-2.514 5.755-3.971 9.29-4.122 3.533-.1 6.916 1.106 9.541 3.468l-4.746 4.725zm.605 5.328c0 1.106-.404 2.212-1.06 3.116a4.833 4.833 0 01-2.777 1.76c-1.11.25-2.272.15-3.281-.352-1.01-.453-1.868-1.307-2.373-2.312a4.872 4.872 0 01-.404-3.268c.252-1.105.808-2.11 1.716-2.814.859-.704 1.97-1.106 3.08-1.157a4.767 4.767 0 013.13 1.006l-3.483 3.468c-.202.201-.253.402-.253.654 0 .25.101.502.253.653.202.201.404.301.656.301.253 0 .505-.1.656-.301l3.433-3.418c.455.854.707 1.76.707 2.664zm16.257 0c0 11.661-9.542 21.161-21.255 21.161s-21.255-9.5-21.255-21.161c0-11.662 9.542-21.161 21.255-21.161 5.402 0 10.602 2.06 14.49 5.73l-4.09 4.071c-2.827-2.614-6.563-4.021-10.4-4.021-8.532 0-15.449 6.886-15.449 15.38 0 8.496 6.917 15.382 15.45 15.382 2.978 0 5.856-.855 8.33-2.413a15.909 15.909 0 005.704-6.534 15.518 15.518 0 001.263-8.545c-.404-2.916-1.666-5.63-3.585-7.892l4.09-4.071a20.862 20.862 0 015.452 14.074zM52.254.25c-.1-.1-.202-.15-.303-.2C51.8 0 51.7 0 51.547 0c-.151 0-.252 0-.353.05-.101.05-.202.1-.303.201l-2.625 2.614-3.433 3.418a.925.925 0 00-.253.603l-.303 4.474-5.3 5.328a23.18 23.18 0 00-15.854-6.283C10.4 10.405 0 20.759 0 33.425c0 3.369.757 6.736 2.171 9.803 1.464 3.066 3.534 5.78 6.16 7.941l-4.343 4.122-.1.1c-.202.202-.253.403-.253.654s.101.503.253.653c.201.202.403.252.656.252.252 0 .505-.1.656-.252l.101-.1 4.544-4.323a23.216 23.216 0 0026.556 0l4.544 4.323.101.1c.202.202.404.252.656.252.253 0 .505-.1.657-.252.202-.2.252-.402.252-.653a.953.953 0 00-.252-.654l-.101-.1-4.342-4.172c2.373-1.96 4.342-4.423 5.806-7.188 1.413-2.764 2.272-5.78 2.474-8.846a23.477 23.477 0 00-1.212-9.149 23.493 23.493 0 00-4.695-7.941l5.2-5.178 4.544-.452a.81.81 0 00.555-.251l6.059-6.032c.202-.201.252-.402.252-.653a.954.954 0 00-.252-.654L52.254.251z" fill="#C99D66"/></svg>