<svg width="130" height="32" fill="none" xmlns="http://www.w3.org/2000/svg"><path d="M24.92 24.091c-1.802 0-3.26 1.36-3.26 3.04s1.458 3.041 3.26 3.041c1.8 0 3.259-1.36 3.259-3.04s-1.458-3.041-3.26-3.041zM27.45.407H.73c-.387 0-.73.32-.73.68v7.121c0 .36.343.68.73.68h8.277v20.564c0 .36.343.68.73.68h2.144c4.331 0 7.29-2.36 7.29-5.84V8.887h8.279c.386 0 .729-.32.729-.68v-7.12c-.043-.36-.343-.68-.73-.68zm71.24.159c0 .04 0 0 0 0-.171 0-.3.12-.3.28v3.2c0 .16.129.24.3.24h6.52c1.629 0 2.316.6 2.316 1.6v.401h-5.019c-1.544 0-2.745.36-3.645 1-.9.68-1.33 1.64-1.33 2.84v1.28c0 1.361.515 2.441 1.458 3.241.987.76 2.231 1.16 3.775 1.16 2.23 0 3.774-.8 5.318-2.36l.386 1.88c0 .08.086.12.172.12h3.645c.172 0 .258-.12.258-.24v-9.28c0-2-.515-3.44-1.587-4.28-1.03-.841-2.659-1.201-4.804-1.241-1.716-.04-4.804.08-7.463.16zm8.793 10.322c-1.287.88-2.231 1.32-3.389 1.32-1.115 0-1.587-.4-1.587-1.32v-.36c0-.8.429-1.2 1.33-1.2h3.689v1.56h-.043zM129.743.566h-4.418c-.172 0-.257.12-.257.24v5.081h-5.19V.847c0-.16-.129-.24-.257-.24h-4.461c-.172 0-.257.12-.257.24v14.402c0 .16.128.24.257.24h4.461c.171 0 .257-.12.257-.24V9.328h5.19v5.92c0 .16.128.24.257.24h4.418c.171 0 .257-.12.257-.24V.847c0-.16-.129-.28-.257-.28zm-34.484 0h-7.892c-2.745 0-4.074 1.32-4.546 3.841-.3 1.64-.9 5.2-1.115 6.601-.086.52-.687.72-1.544.76-.3 0-.6.08-.6.56v2.64c0 .28.257.48.557.48h3.517c1.2 0 2.273-.76 2.487-1.88.472-2.6 1.115-6.32 1.459-8.36.214-1.121.472-1.281 1.458-1.281h1.501v11.242c0 .16.129.24.257.24h4.504c.171 0 .257-.12.257-.24V.766c0-.08-.128-.2-.3-.2zm-33.454 0H48.552c-.172 0-.258.12-.258.24v3.2c0 .161.129.241.258.241h4.117v10.922c0 .16.129.24.257.24h4.461c.172 0 .257-.12.257-.24V4.327h4.118c.171 0 .257-.12.257-.24v-3.2c.043-.2-.086-.32-.214-.32zm14.497 1.08c-1.03-.84-2.66-1.2-4.804-1.24-1.33-.04-5.79.08-7.206.16-.171 0-.3.12-.3.28v3.2c0 .16.129.24.3.24h6.177c1.63 0 2.316.6 2.316 1.6v.401h-5.019c-1.544 0-2.745.36-3.645 1-.901.68-1.33 1.64-1.33 2.84v1.28c0 1.361.515 2.441 1.458 3.241.987.76 2.23 1.16 3.775 1.16 2.23 0 3.774-.8 5.318-2.36l.386 1.88c0 .08.086.12.172.12h3.645c.172 0 .258-.12.258-.24v-9.28c.085-2-.472-3.44-1.501-4.28zm-3.518 9.242c-1.286.88-2.23 1.32-3.388 1.32-1.115 0-1.587-.4-1.587-1.32v-.36c0-.8.43-1.2 1.33-1.2h3.688v1.56h-.043zM55.8 23.41c1.072 0 1.973.28 2.66.88a3.04 3.04 0 011.072 2.36c0 1-.344 1.8-1.073 2.36-.686.601-1.587.881-2.659.881h-.9v1.16h-1.116v-1.16h-.943c-1.073 0-1.973-.28-2.66-.88-.686-.6-1.072-1.36-1.072-2.36 0-1 .343-1.8 1.072-2.36.687-.601 1.587-.881 2.66-.881h.943v-1H54.9v.96h.901v.04zm-2.916 5.52h.943v-4.56h-.944c-.772 0-1.372.2-1.887.6-.471.4-.729.96-.729 1.68s.258 1.28.73 1.68c.471.4 1.114.6 1.886.6zm2.916 0c.772 0 1.415-.2 1.887-.6.472-.4.73-.96.73-1.68s-.258-1.28-.73-1.68c-.472-.4-1.115-.6-1.887-.6h-.9v4.56h.9zm10.723-4.64h1.33v6.801h-1.116v-3.24l.086-2.28-4.203 5.48h-1.33v-6.8h1.115v3.24l-.086 2.28 4.204-5.48zm8.835 0h1.115v6.801h-1.115v-3h-4.46v3h-1.116v-6.8h1.115v2.84h4.46v-2.84zm9.007 0h1.115v6.801h-1.115v-1.36c-.3.48-.686.84-1.158 1.12-.472.28-1.03.4-1.63.4-.986 0-1.801-.32-2.445-1-.643-.68-.943-1.52-.943-2.52 0-1.04.3-1.88.943-2.52.644-.68 1.459-1 2.445-1 .6 0 1.158.12 1.673.4.472.28.858.64 1.158 1.12v-1.44h-.043zm-2.616 5.921c.729 0 1.372-.24 1.844-.72.514-.48.729-1.08.729-1.84s-.257-1.36-.73-1.84a2.586 2.586 0 00-1.843-.72c-.73 0-1.33.24-1.802.72s-.686 1.08-.686 1.84.214 1.36.686 1.84c.472.48 1.072.72 1.802.72zm11.237-5.921H94.1v6.801h-1.115v-3h-4.46v3H87.41v-6.8h1.115v2.84h4.46v-2.84zm6.519 6.921c-1.072 0-1.973-.32-2.66-1-.728-.68-1.071-1.52-1.071-2.52s.343-1.84 1.072-2.52c.729-.68 1.63-1 2.66-1 .857 0 1.629.24 2.272.68a2.987 2.987 0 011.244 1.84h-1.158a2.177 2.177 0 00-.901-1.12c-.429-.28-.943-.4-1.5-.4-.773 0-1.416.24-1.888.72-.515.48-.73 1.12-.73 1.84 0 .76.258 1.36.73 1.84.515.48 1.115.72 1.887.72.558 0 1.072-.12 1.501-.4.429-.28.729-.64.901-1.12h1.158c-.214.76-.6 1.4-1.287 1.84-.643.36-1.372.6-2.23.6z" fill="#fff"/></svg>