<svg width="66" height="62" fill="none" xmlns="http://www.w3.org/2000/svg"><path d="M33 61.706c-18.18 0-33-13.855-33-30.853C0 13.856 14.82 0 33 0s33 13.856 33 30.853c0 16.998-14.82 30.853-33 30.853zm0-60.095c-17.232 0-31.277 13.13-31.277 29.242 0 16.112 14.045 29.242 31.277 29.242s31.277-13.13 31.277-29.242C64.277 14.742 50.232 1.611 33 1.611z" fill="#C99D66"/><path fill-rule="evenodd" clip-rule="evenodd" d="M33 45.955c.732 0 1.163-.443 1.206-1.088.173.282.388.484.69.524.301.04.646 0 .904-.08a1.24 1.24 0 00.647-.565c.129-.282.086-.523 0-.845.344.483.947.604 1.421.362.69-.322.948-.886.69-1.49a341.092 341.092 0 00-2.629-5.76c-.086-.161-.129-.362-.215-.524-.086-.16-.13-.282-.215-.362-.043-.08-.13-.12-.216-.161 1.336.12 1.982.644 2.37.846.086.04.086.08.474-.04.172-.04.344 0 .473.04.173.08.345.16.474.282.474.362.991.684 1.422 1.087.215.161.517.483.474.765-.043.242-.69.846-.905 1.007-.474.403.259 1.209 1.207 1.128-.259-.242-.302-.443-.302-.644.086 0 .258 0 .43-.121.216-.161.13-.685.302-.846.345-.322 1.422-.322 2.068-.362.259 0 .56-.081.56-.484.431.04.517.322.517.564.345-.201.646-1.088-.646-1.289.215-.201.603-.242.819 0 .215-.322-.345-.967-1.293-.604 0 0-.43-.524-1.766.846a4.539 4.539 0 01-.474-.363c-.517-.443-1.81-1.61-1.81-1.61 0-.645-.086-1.934-1.033-2.7-.388-.322-.776-.483-1.637-.644 0 0 .387-.604.473-.846.733.685 2.198.886 2.198-.282 1.206 1.128 2.326.524 2.326-.201.043.362.13.725.258 1.047.173.363.69 1.853 2.111 1.853.043.523.043 2.175 1.724 2.537.086 0 .172.04.215.081.69.806 3.533 1.651 3.877 1.41-.215-.161-.56-.363-.646-1.29-.043-.603-.13-3.826-.13-8.377 0-1.611-.171-6.807-5.686-7.532-.818-.121-1.637-.04-2.37.443-.947.685-1.421 1.812-.86 3.101 0 .04.042.08.042.121.172.322.13.564-.13.806-.473.443-.99.725-1.636.765-.388.04-.733-.12-.991-.403-.603-.604-1.034-1.289-1.206-2.094-.259-1.571.172-2.336.172-2.377.43-.845 1.379-1.45 2.499-1.53.646-.927 2.11-.564 2.11-.564.345.08.475.161.56.322 0 0 .647-.886.044-1.248-.603-.363-1.939-.524-1.939-.524 0-.604-1.034-1.047-2.93-.725-2.283.362-2.756-.443-2.756-.443-.087 1.007.732 1.53.99 1.692-.861.886-2.068 2.618-2.37 5.115-.3-2.497-1.507-4.23-2.369-5.116.259-.16 1.078-.684.991-1.691 0 0-.474.846-2.757.443-1.895-.322-2.93.161-2.93.725 0 0-1.335.161-1.938.523-.603.363.043 1.25.043 1.25.086-.162.216-.283.56-.323 0 0 1.465-.363 1.939.523 1.12.081 2.068.685 2.498 1.531.044.04.474.846.173 2.377-.172.805-.56 1.53-1.207 2.094-.258.242-.603.443-.99.403-.647-.08-1.164-.363-1.637-.766-.259-.241-.345-.483-.13-.805.043-.04.043-.08.043-.12.56-1.29.087-2.418-.861-3.102-.69-.484-1.551-.564-2.37-.443-5.385.725-5.557 5.92-5.557 7.532 0 4.551-.086 7.733-.13 8.378-.042.926-.387 1.127-.646 1.288.345.242 3.188-.604 3.878-1.41a.342.342 0 01.215-.08c1.723-.362 1.723-2.054 1.723-2.537 1.422 0 1.982-1.45 2.111-1.853.13-.322.216-.725.259-1.047 0 .725 1.12 1.329 2.326.201 0 1.168 1.465.967 2.197.282.043.242.474.846.474.846-.861.16-1.206.322-1.637.644-.948.766-1.034 2.054-1.034 2.699 0 0-1.292 1.168-1.81 1.611-.171.12-.3.242-.473.362-1.336-1.369-1.766-.845-1.766-.845-.991-.363-1.508.282-1.293.604.216-.242.603-.161.819 0-1.336.201-1.034 1.128-.647 1.289 0-.242.087-.564.518-.564 0 .403.258.483.56.483.646.04 1.766.04 2.067.363.173.16.087.684.302.846.172.16.345.12.43.12.044.202-.042.403-.3.645.947.08 1.68-.725 1.205-1.128-.215-.161-.861-.765-.904-1.007-.043-.282.258-.564.474-.765l1.421-1.088c.13-.12.302-.201.474-.282.13-.08.302-.08.474-.04.345.12.345.08.474.04.345-.201.99-.725 2.37-.846a.931.931 0 00-.216.162c-.086.08-.13.201-.215.362a2.693 2.693 0 00-.216.524 340.74 340.74 0 01-2.628 5.76c-.301.644-.043 1.208.69 1.49.517.242 1.077.12 1.421-.363-.086.323-.129.605 0 .846.13.282.345.443.646.564.302.12.604.161.905.08.302-.04.517-.241.69-.523.172.685.603 1.128 1.335 1.128z" fill="#C99D66"/></svg>
